/* XPM */
static const char *snapdotnet[] = {
/* columns rows colors chars-per-pixel */
"32 32 182 2 ",
"   c #FFC006",
".  c #FFC106",
"X  c #FFC007",
"o  c #FFC107",
"O  c #FFC008",
"+  c #FFC108",
"@  c #FFC109",
"#  c #FFC208",
"$  c #FFC20A",
"%  c #FFC20C",
"&  c #FFC20D",
"*  c #FFC30F",
"=  c #FFC311",
"-  c #FFC412",
";  c #FFC413",
":  c #FFC414",
">  c #FFC415",
",  c #FFC516",
"<  c #FFC517",
"1  c #FFC518",
"2  c #FFC519",
"3  c #FFC619",
"4  c #FFC61B",
"5  c #FFC71D",
"6  c #FFC71E",
"7  c #FFC71F",
"8  c #FFC720",
"9  c #FFC822",
"0  c #FFC929",
"q  c #FFCA2A",
"w  c #FFCA2B",
"e  c #FFCA2C",
"r  c #FFCA2D",
"t  c #FFCB2D",
"y  c #FFCB2E",
"u  c #FFCB2F",
"i  c #FFCB30",
"p  c #FFCB31",
"a  c #FFCC30",
"s  c #FFCD37",
"d  c #FFCD38",
"f  c #FFCD39",
"g  c #FFCE3B",
"h  c #FFCF3E",
"j  c #FFCF40",
"k  c #FFD042",
"l  c #FFD044",
"z  c #FFD145",
"x  c #FFD249",
"c  c #FFD34E",
"v  c #FFD34F",
"b  c #FFD350",
"n  c #FFD351",
"m  c #FFD452",
"M  c #FFD453",
"N  c #FFD557",
"B  c #FFD559",
"V  c #FFD65A",
"C  c #FFD65B",
"Z  c #FFD65C",
"A  c #FFD760",
"S  c #FFD861",
"D  c #FFD862",
"F  c #FFD863",
"G  c #FFD864",
"H  c #FFD965",
"J  c #FFD966",
"K  c #FFDA69",
"L  c #FFDA6A",
"P  c #FFDA6C",
"I  c #FFDB6D",
"U  c #FFDB6E",
"Y  c #FFDB71",
"T  c #FFDC72",
"R  c #FEDC74",
"E  c #FFDC75",
"W  c #FFDD77",
"Q  c #FFDD79",
"!  c #FFDE7A",
"~  c #FFDE7B",
"^  c #FFE082",
"/  c #FFE083",
"(  c #FFE084",
")  c #FFE187",
"_  c #FFE188",
"`  c #FFE289",
"'  c #FFE28A",
"]  c #FFE38E",
"[  c #FFE491",
"{  c #FFE494",
"}  c #FFE495",
"|  c #FFE597",
" . c #FFE598",
".. c #FFE69A",
"X. c #FFE69B",
"o. c #FFE69C",
"O. c #FFE79E",
"+. c #FFE7A0",
"@. c #FFE7A1",
"#. c #FFE8A2",
"$. c #FFE8A3",
"%. c #FFE8A4",
"&. c #FFE8A5",
"*. c #FFE9A6",
"=. c #FFE9A7",
"-. c #FFE9A8",
";. c #FFEAA9",
":. c #FFEAAA",
">. c #FFEAAB",
",. c #FFEAAC",
"<. c #FFEBAD",
"1. c #FFEBB0",
"2. c #FFECB1",
"3. c #FFECB4",
"4. c #FFEDB5",
"5. c #FFEDB6",
"6. c #FFEDB9",
"7. c #FFEEBA",
"8. c #FFEEBD",
"9. c #FFEFBE",
"0. c #C8C8C8",
"q. c #CECECE",
"w. c LightGray",
"e. c gray85",
"r. c gray86",
"t. c gray87",
"y. c #FDEEC0",
"u. c #FFEFC0",
"i. c #FFEFC1",
"p. c #FDEFC4",
"a. c #FDEFC5",
"s. c #FCEFC7",
"d. c #FFF0C2",
"f. c #FFF0C3",
"g. c #FFF0C4",
"h. c #FFF0C5",
"j. c #FFF1C7",
"k. c #FFF1C9",
"l. c #FFF2CA",
"z. c #FFF2CB",
"x. c #FFF2CC",
"c. c #FDF2D0",
"v. c #FDF2D2",
"b. c #FFF4D3",
"n. c #FFF5D5",
"m. c #FFF5D6",
"M. c #FFF5D7",
"N. c #FFF6D9",
"B. c #FFF6DB",
"V. c #FFF6DC",
"C. c #FFF6DD",
"Z. c #FFF7DE",
"A. c #FFF7DF",
"S. c #FFF7E0",
"D. c #FFF7E1",
"F. c #FFF8E2",
"G. c #FFF8E4",
"H. c #FFF8E5",
"J. c #FFF9E6",
"K. c #FFF9E7",
"L. c #F5F2E9",
"P. c #FFF9E9",
"I. c #FFFAEB",
"U. c #FFFAED",
"Y. c #FFFBED",
"T. c #FEFAEE",
"R. c #F9F7F2",
"E. c #FFFCF1",
"W. c #FBFAF4",
"Q. c #FFFCF4",
"!. c #FFFDF6",
"~. c #FFFDF7",
"^. c #FDFCF9",
"/. c #FFFDF8",
"(. c #FEFDF9",
"). c #FFFEF9",
"_. c #FDFCFA",
"`. c #FEFDFA",
"'. c #FFFEFB",
"]. c #FFFEFC",
"[. c #FFFFFD",
"{. c None",
/* pixels */
"{.{.{.{.{.{.{.{.{.{.{.{.{.{.{.{.{.{.{.{.{.{.{.{.{.{.{.{.{.{.{.{.",
"{.{.{.{.{.{.{.{.{.{.{.{.{.{.o + + o {.{.{.{.{.{.{.{.{.{.{.{.{.{.",
"{.{.{.{.{.{.{.{.{.{.+ o o o o o o o o o + o {.{.{.{.{.{.{.{.{.{.",
"{.{.{.{.{.{.{.{.+ o o 5 U -.b.H.( o o o o o o o {.{.{.{.{.{.{.{.",
"{.{.{.{.{.{.{.o o t &.].M.{ H m 5 o o o o o o o o {.{.{.{.{.{.{.",
"{.{.{.{.{.{.o + ! ~.2.f h _ 2.x.- o o o o o o o o o {.{.{.{.{.{.",
"{.{.{.{.{.o & &.I.b b z.).4._ N + o o o o o o o o o o {.{.{.{.{.",
"{.{.{.{.o + &.A.t { ~.( t U &._ o o o o o o o o o o o o {.{.{.{.",
"{.{.{.o o T U.t 6.B.f ( ~.M.{ z o o o o o o o o o o o o + {.{.{.",
"{.{.{.o 3 ~.V [ H.a z.S.c + o o o o o < + o o o o o _ 9 o {.{.{.",
"{.{.o o & m < H.f f.j.< o o o o o o j U.Z o o o & < 6.O.o o {.{.",
"{.{.o o o o o o < &.3 o o o o o o Z ).).F o o o L z.z ).< o {.{.",
"{.{.o o o o o o o o o o o o o o E ).r.L.F o = j.i ].t S.F o {.{.",
"{.{.o o o o o o o o o f a.a.a.v.W.w.0.L.F o + F.A i./ O.O.o {.{.",
"{.o o o o o o o o o o F R.t.t.t.q.0.0.L.F o o X.+.] &.Y z.o o {.",
"{.o o o o o o o o o o F L.0.0.0.0.0.0.L.F o o ! 9.T j.V A.o o {.",
"{.+ o o o o o o o o o F L.0.0.0.0.0.0.L.F o o E i.U z.V A.o + {.",
"{.o o o o o o o o o o F R.t.t.t.q.0.0.L.F o o { &._ -.U x.o o {.",
"{.{.o o o o o o o o o s i.a.a.v.W.w.0.L.F o o B.L 4._ X.&.o {.{.",
"{.{.o o o o o o o o o o o o o o E ).r.L.F o - H.t ).f M.U o {.{.",
"{.{.o o o o o + t 1.< o o o o o o Z ).).F o o o H M.f ].5 o {.{.",
"{.{.o o 3 V t U.s x.9.< o o o o o o j U.Z o o o 3 0 -.<.o o {.{.",
"{.{.{.o t ).x +.B.t x.A.b + o o o o o < + o o o o o -.i o {.{.{.",
"{.{.{.+ o / H.0 f.B.f ( E.A.+.k o o o o o o o o o o o o o {.{.{.",
"{.{.{.{.o + 1.B.t { ~._ t H X.L o o o o o o o o o o o o {.{.{.{.",
"{.{.{.{.{.o & <.I.b c j.).i.{ Z o o o o o o o o o o o {.{.{.{.{.",
"{.{.{.{.{.{.o + ! ~.4.j s ! &.1.o o o o o o o o o o {.{.{.{.{.{.",
"{.{.{.{.{.{.{.o o 0 $.).S.$.E F 8 o o o o o o o o {.{.{.{.{.{.{.",
"{.{.{.{.{.{.{.{.o o o 3 F X.j.M.F o o o o o o + {.{.{.{.{.{.{.{.",
"{.{.{.{.{.{.{.{.{.{.o + o o o o o o o o o o {.{.{.{.{.{.{.{.{.{.",
"{.{.{.{.{.{.{.{.{.{.{.{.{.{.o + + o {.{.{.{.{.{.{.{.{.{.{.{.{.{.",
"{.{.{.{.{.{.{.{.{.{.{.{.{.{.{.{.{.{.{.{.{.{.{.{.{.{.{.{.{.{.{.{."
};
